<svg width="80" height="80" viewBox="0 0 80 80" fill="none" xmlns="http://www.w3.org/2000/svg">
<path d="M51.4736 49.2726L51.3549 49.3432L51.4863 49.3858C60.3113 52.24 67.7694 58.2561 72.4265 66.2772C72.6409 66.6477 72.7539 67.0681 72.7543 67.4962C72.7546 67.9242 72.6422 68.3448 72.4283 68.7157C72.2144 69.0865 71.9067 69.3944 71.536 69.6086C71.1653 69.8227 70.7448 69.9354 70.3167 69.9353L9.68455 69.9347C9.25648 69.9347 8.83597 69.822 8.46531 69.6079C8.09464 69.3938 7.78691 69.0858 7.57305 68.715C7.3592 68.3442 7.24676 67.9236 7.24707 67.4955C7.24738 67.0675 7.36041 66.647 7.57479 66.2765C12.2319 58.2558 19.6899 52.2399 28.5145 49.3858L28.646 49.3432L28.5272 49.2726C24.3042 46.7598 21.0229 42.9302 19.1872 38.372C17.3515 33.8137 17.0631 28.7788 18.3661 24.0407C19.6691 19.3026 22.4915 15.1232 26.3999 12.1446C30.3083 9.16594 35.0864 7.55273 40.0004 7.55273C44.9144 7.55273 49.6926 9.16594 53.601 12.1446C57.5093 15.1232 60.3318 19.3026 61.6348 24.0407C62.9378 28.7788 62.6493 33.8137 60.8136 38.372C58.978 42.9302 55.6966 46.7598 51.4736 49.2726ZM72.4806 66.2458L72.4803 66.246L72.4805 66.2459L72.4806 66.2458Z" stroke-width="0.125"/>
</svg>
