<svg width="32" height="32" viewBox="0 0 32 32" fill="none" xmlns="http://www.w3.org/2000/svg">
<path d="M7 23.5V10C7 9.80109 7.07902 9.61032 7.21967 9.46967C7.36032 9.32902 7.55109 9.25 7.75 9.25H12.75C12.9123 9.25 13.0702 9.30263 13.2 9.4L15.8 11.35C15.9298 11.4474 16.0877 11.5 16.25 11.5H22.75C22.9489 11.5 23.1397 11.579 23.2803 11.7197C23.421 11.8603 23.5 12.0511 23.5 12.25V14.5" stroke-width="2" stroke-linecap="round" stroke-linejoin="round"/>
<path d="M7 23.5L9.82906 15.0128C9.87884 14.8635 9.97434 14.7336 10.102 14.6416C10.2297 14.5495 10.3832 14.5 10.5406 14.5H25.4594C25.5783 14.5 25.6954 14.5282 25.8012 14.5824C25.907 14.6365 25.9984 14.7151 26.0679 14.8115C26.1373 14.9079 26.1829 15.0194 26.2009 15.1369C26.2188 15.2544 26.2085 15.3744 26.1709 15.4872L23.5 23.5H7Z" stroke-width="2" stroke-linecap="round" stroke-linejoin="round"/>
</svg>
