<svg width="16" height="16" viewBox="0 0 16 16" fill="none" xmlns="http://www.w3.org/2000/svg">
<path d="M4.83443 12.6173L2.82174 14.3092C2.74886 14.3705 2.65999 14.4097 2.5656 14.4222C2.47121 14.4347 2.37521 14.42 2.2889 14.3798C2.20258 14.3396 2.12954 14.2756 2.07836 14.1953C2.02719 14.115 2 14.0217 2 13.9265V4.00003C2 3.86742 2.05268 3.74025 2.14645 3.64648C2.24021 3.55271 2.36739 3.50003 2.5 3.50003H13.5C13.6326 3.50003 13.7598 3.55271 13.8536 3.64648C13.9473 3.74025 14 3.86742 14 4.00003V12C14 12.1326 13.9473 12.2598 13.8536 12.3536C13.7598 12.4474 13.6326 12.5 13.5 12.5H5.15617C5.03847 12.5 4.92453 12.5416 4.83443 12.6173Z" stroke-width="2" stroke-linecap="round" stroke-linejoin="round"/>
<path d="M8 8.75C8.41421 8.75 8.75 8.41421 8.75 8C8.75 7.58579 8.41421 7.25 8 7.25C7.58579 7.25 7.25 7.58579 7.25 8C7.25 8.41421 7.58579 8.75 8 8.75Z"/>
<path d="M5 8.75C5.41421 8.75 5.75 8.41421 5.75 8C5.75 7.58579 5.41421 7.25 5 7.25C4.58579 7.25 4.25 7.58579 4.25 8C4.25 8.41421 4.58579 8.75 5 8.75Z"/>
<path d="M11 8.75C11.4142 8.75 11.75 8.41421 11.75 8C11.75 7.58579 11.4142 7.25 11 7.25C10.5858 7.25 10.25 7.58579 10.25 8C10.25 8.41421 10.5858 8.75 11 8.75Z"/>
</svg>
