<svg width="32" height="32" viewBox="0 0 32 32" fill="none" xmlns="http://www.w3.org/2000/svg">
<path d="M16.0002 19.7495C18.0713 19.7495 19.7502 18.0706 19.7502 15.9995C19.7502 13.9285 18.0713 12.2495 16.0002 12.2495C13.9292 12.2495 12.2502 13.9285 12.2502 15.9995C12.2502 18.0706 13.9292 19.7495 16.0002 19.7495Z" stroke-width="2" stroke-linecap="round" stroke-linejoin="round"/>
<path d="M20.9767 23.4997C19.3058 24.6086 17.3125 25.1278 15.313 24.9748C13.3135 24.8219 11.4223 24.0055 9.93954 22.6554C8.4568 21.3052 7.46741 19.4985 7.12837 17.522C6.78932 15.5456 7.12004 13.5124 8.06805 11.7453C9.01606 9.97818 10.5271 8.57825 12.3613 7.76764C14.1955 6.95704 16.2479 6.78219 18.1928 7.27085C20.1377 7.75951 21.8638 8.88368 23.097 10.465C24.3303 12.0463 25.0001 13.9942 25.0003 15.9995C25.0003 18.0706 24.2503 19.7495 22.3753 19.7495C20.5003 19.7495 19.7503 18.0706 19.7503 15.9995V12.2495" stroke-width="2" stroke-linecap="round" stroke-linejoin="round"/>
</svg>
