<svg width="20" height="20" viewBox="0 0 20 20" fill="none" xmlns="http://www.w3.org/2000/svg">
<path d="M13.7498 7.75H12.0623V6.4375C12.0623 5.89049 11.845 5.36589 11.4582 4.97909C11.0714 4.5923 10.5468 4.375 9.99976 4.375C9.45275 4.375 8.92814 4.5923 8.54135 4.97909C8.15455 5.36589 7.93726 5.89049 7.93726 6.4375V7.75H6.24976C6.05091 7.75023 5.86028 7.82932 5.71968 7.96992C5.57907 8.11052 5.49998 8.30116 5.49976 8.5V13.75C5.49998 13.9488 5.57907 14.1395 5.71968 14.2801C5.86028 14.4207 6.05091 14.4998 6.24976 14.5H13.7498C13.9486 14.4998 14.1392 14.4207 14.2798 14.2801C14.4204 14.1395 14.4995 13.9488 14.4998 13.75V8.5C14.4995 8.30116 14.4204 8.11052 14.2798 7.96992C14.1392 7.82932 13.9486 7.75023 13.7498 7.75ZM8.68726 6.4375C8.68726 6.0894 8.82554 5.75556 9.07168 5.50942C9.31782 5.26328 9.65166 5.125 9.99976 5.125C10.3479 5.125 10.6817 5.26328 10.9278 5.50942C11.174 5.75556 11.3123 6.0894 11.3123 6.4375V7.75H8.68726V6.4375Z"/>
</svg>
