<svg width="24" height="24" viewBox="0 0 24 24" fill="none" xmlns="http://www.w3.org/2000/svg">
<path d="M13.0625 12C13.0625 12.5868 12.5868 13.0625 12 13.0625C11.4132 13.0625 10.9375 12.5868 10.9375 12C10.9375 11.4132 11.4132 10.9375 12 10.9375C12.5868 10.9375 13.0625 11.4132 13.0625 12Z"  stroke-width="0.125"/>
<path d="M13.0625 6C13.0625 6.5868 12.5868 7.0625 12 7.0625C11.4132 7.0625 10.9375 6.5868 10.9375 6C10.9375 5.4132 11.4132 4.9375 12 4.9375C12.5868 4.9375 13.0625 5.4132 13.0625 6Z"  stroke-width="0.125"/>
<path d="M12 19.125C12.6213 19.125 13.125 18.6213 13.125 18C13.125 17.3787 12.6213 16.875 12 16.875C11.3787 16.875 10.875 17.3787 10.875 18C10.875 18.6213 11.3787 19.125 12 19.125Z" stroke-width="0.125"/>
</svg>
