<svg width="32" height="32" viewBox="0 0 32 32" fill="none" xmlns="http://www.w3.org/2000/svg">
<path d="M12.6697 15.7014C13.4476 17.2919 14.7369 18.5753 16.3309 19.346C16.4475 19.4013 16.5765 19.4253 16.7052 19.4155C16.8339 19.4058 16.9579 19.3627 17.0648 19.2905L19.4119 17.7254C19.5157 17.6562 19.6352 17.614 19.7594 17.6026C19.8837 17.5911 20.0088 17.6109 20.1235 17.6601L24.5144 19.5419C24.6636 19.6053 24.7881 19.7154 24.8693 19.8557C24.9504 19.996 24.9838 20.1588 24.9643 20.3197C24.8255 21.4057 24.2956 22.4039 23.4739 23.1274C22.6521 23.8508 21.5948 24.2499 20.5 24.25C17.1185 24.25 13.8755 22.9067 11.4844 20.5156C9.0933 18.1245 7.75 14.8815 7.75 11.5C7.75006 10.4052 8.14918 9.34789 8.87264 8.52613C9.5961 7.70438 10.5943 7.17451 11.6803 7.03572C11.8412 7.01625 12.004 7.04959 12.1443 7.13073C12.2846 7.21186 12.3947 7.33639 12.4581 7.48555L14.3416 11.8804C14.3903 11.994 14.4101 12.118 14.3994 12.2412C14.3886 12.3644 14.3475 12.483 14.2798 12.5865L12.7201 14.9696C12.6491 15.0768 12.6072 15.2006 12.5983 15.3289C12.5895 15.4571 12.614 15.5855 12.6697 15.7014V15.7014Z" stroke-width="2" stroke-linecap="round" stroke-linejoin="round"/>
</svg>
