<svg width="14" height="14" viewBox="0 0 14 14" fill="none" xmlns="http://www.w3.org/2000/svg">
<path d="M13.9474 5.08838C13.885 4.89239 13.765 4.71977 13.6029 4.59303C13.4409 4.4663 13.2445 4.39134 13.0392 4.37793L9.32732 4.11817L7.95037 0.650879C7.87585 0.459191 7.74517 0.294484 7.57544 0.178341C7.40571 0.0621971 7.20486 3.50375e-05 6.9992 0H6.99822C6.79288 0.000366257 6.59242 0.0626868 6.42307 0.178813C6.25372 0.294939 6.12334 0.459465 6.049 0.650879L4.65154 4.13818L0.960135 4.37793C0.75488 4.39134 0.558432 4.4663 0.396421 4.59303C0.23441 4.71977 0.114359 4.89239 0.0519315 5.08838C-0.0139252 5.28715 -0.0184052 5.50115 0.0390747 5.7025C0.0965545 5.90386 0.213331 6.08324 0.374197 6.21729L3.21404 8.61768L2.36931 11.9404C2.31109 12.1643 2.3218 12.4004 2.40003 12.6181C2.47827 12.8357 2.62039 13.0246 2.80779 13.1602C2.98872 13.2918 3.20508 13.3659 3.42872 13.3729C3.65236 13.3799 3.87292 13.3193 4.0617 13.1992L6.99138 11.3433C6.99529 11.3403 6.9992 11.3384 7.00799 11.3433L10.1603 13.3403C10.3315 13.4497 10.5316 13.5048 10.7346 13.4985C10.9376 13.4923 11.134 13.4249 11.298 13.3052C11.4678 13.1824 11.5966 13.0113 11.6675 12.8141C11.7385 12.617 11.7482 12.403 11.6955 12.2002L10.798 8.57031L13.6252 6.21729C13.786 6.08324 13.9028 5.90385 13.9603 5.7025C14.0178 5.50115 14.0133 5.28715 13.9474 5.08838Z"/>
</svg>
